<?xml version="1.0" encoding="UTF-8"?>
<svg width="1200pt" height="1200pt" version="1.1" viewBox="0 0 1200 1200" xmlns="http://www.w3.org/2000/svg">
 <g fill="#c362dd">
  <path d="m1130.5 189.77c10.547-10.551 16.473-24.855 16.473-39.77s-5.9258-29.219-16.473-39.77l-32.512-32.512c-12.395-12.398-29.859-18.309-47.234-15.984-17.379 2.3242-32.676 12.617-41.379 27.836l-4.0859 7.1641v-0.003906c-33.578-23.266-70.902-40.594-110.34-51.223l-27.602-7.3672v-0.003906c-5.6289-1.5039-11.633-0.30469-16.254 3.2461-4.6211 3.5469-7.332 9.043-7.332 14.867v82.164l-9.375-4.668-53.719-35.812-54.938-54.938v-0.003906c-3.9727-3.9688-9.5117-5.9531-15.102-5.4023-5.5898 0.55469-10.637 3.582-13.754 8.2539l-31.895 47.906h-129.94l-31.875-47.906c-3.1172-4.6719-8.1641-7.6992-13.754-8.2539-5.5898-0.55078-11.133 1.4336-15.102 5.4023l-54.938 54.938-53.738 35.812-9.375 4.668v-82.16c0-5.8242-2.7109-11.32-7.332-14.867-4.6211-3.5508-10.625-4.75-16.254-3.2461l-27.602 7.3672v0.003906c-39.441 10.629-76.766 27.957-110.34 51.223l-4.0859-7.1641v0.003906c-8.7031-15.219-24-25.512-41.379-27.836-17.375-2.3242-34.84 3.5859-47.234 15.984l-32.512 32.512c-10.547 10.551-16.473 24.855-16.473 39.77s5.9258 29.219 16.473 39.77l19.273 19.273c-33.516 55.785-51.238 119.63-51.281 184.71 0 4.1289 1.3633 8.1445 3.8789 11.418 2.5156 3.2773 6.043 5.6289 10.035 6.6953l191.96 51.262 0.375 169.57c-0.09375 16.668 6.5195 32.668 18.344 44.41 11.828 11.742 27.879 18.238 44.543 18.027 3.6367 41.25 12.414 87.957 20.625 130.26 6.8516 31.102 11.902 62.57 15.133 94.254-0.050781 19.5-5.3594 38.621-15.375 55.352h-8.2695c-4.9727 0-9.7422 1.9766-13.258 5.4922-3.5156 3.5156-5.4922 8.2852-5.4922 13.258v150c0 4.9727 1.9766 9.7422 5.4922 13.258 3.5156 3.5156 8.2852 5.4922 13.258 5.4922h131.25c4.9727 0 9.7422-1.9766 13.258-5.4922l13.254-13.258h246.98l13.258 13.258h-0.003906c3.5156 3.5156 8.2852 5.4922 13.258 5.4922h131.25c4.9727 0 9.7422-1.9766 13.258-5.4922 3.5156-3.5156 5.4922-8.2852 5.4922-13.258v-150c0-4.9727-1.9766-9.7422-5.4922-13.258-3.5156-3.5156-8.2852-5.4922-13.258-5.4922h-8.0234c-9.8711-16.863-15.438-35.898-16.203-55.426 3.0977-31.27 8.0625-62.324 14.871-93 9.1055-43.332 15.988-87.102 20.625-131.14h1.125c16.633-0.074219 32.559-6.7344 44.293-18.523 11.734-11.793 18.316-27.75 18.312-44.383l-1.4805-168.99 193.82-51.676h-0.003906c3.9922-1.0664 7.5195-3.418 10.035-6.6953 2.5156-3.2734 3.8789-7.2891 3.8789-11.418-0.042969-65.07-17.766-128.91-51.281-184.69zm-74.773-90.883c5.7969-0.76953 11.621 1.2031 15.75 5.3438l32.492 32.512c3.5156 3.5195 5.4922 8.2852 5.4922 13.258s-1.9766 9.7383-5.4922 13.258l-159.24 159.24c-4.5703-6.0234-10.309-11.062-16.875-14.812l114.07-199.5c2.8828-5.0938 7.9961-8.5391 13.801-9.3008zm-155.72 238.61c4.9727 0 9.7422 1.9766 13.258 5.4922 3.5156 3.5156 5.4922 8.2852 5.4922 13.258s-1.9766 9.7422-5.4922 13.258c-3.5156 3.5156-8.2852 5.4922-13.258 5.4922s-9.7422-1.9766-13.258-5.4922c-3.5156-3.5156-5.4922-8.2852-5.4922-13.258s1.9766-9.7422 5.4922-13.258c3.5156-3.5156 8.2852-5.4922 13.258-5.4922zm-14.719-255.79c36.289 9.8203 70.566 25.961 101.25 47.684l-98.195 171.82c-2.4336 0.58594-4.8242 1.332-7.1602 2.2305v-222.82zm-443.62 46.391c1.0273-0.68359 1.9844-1.4688 2.8516-2.3438l40.086-40.086 24.805 37.238v-0.003906c3.4805 5.2148 9.332 8.3438 15.602 8.3438h150c6.2695 0 12.121-3.1289 15.602-8.3438l24.805-37.238 40.086 40.086v0.003906c0.86719 0.875 1.8242 1.6602 2.8516 2.3438l34.93 23.27-68.605 54.879h-249.38l-68.566-54.883zm-141.66 209.4c4.9727 0 9.7422 1.9766 13.258 5.4922 3.5156 3.5156 5.4922 8.2852 5.4922 13.258s-1.9766 9.7422-5.4922 13.258c-3.5156 3.5156-8.2852 5.4922-13.258 5.4922s-9.7422-1.9766-13.258-5.4922c-3.5156-3.5156-5.4922-8.2852-5.4922-13.258s1.9766-9.7422 5.4922-13.258c3.5156-3.5156 8.2852-5.4922 13.258-5.4922zm14.719-255.79 4.0312-1.0859v222.82c-2.3359-0.89844-4.7305-1.6445-7.1641-2.2305l-98.191-171.84c30.707-21.723 65.008-37.855 101.32-47.664zm-218.7 55.031 32.512-32.512c4.1328-4.1367 9.957-6.1094 15.754-5.332 5.7969 0.77344 10.898 4.2109 13.797 9.2891l114.02 199.52c-6.5664 3.75-12.305 8.7891-16.875 14.812l-159.19-159.26c-3.5195-3.5156-5.4961-8.2812-5.5-13.254-0.003906-4.9727 1.9688-9.7422 5.4805-13.262zm20.062 99.602 128.55 128.55c2.3633 16.59 12.105 31.219 26.504 39.797 14.395 8.5742 31.898 10.18 47.613 4.3594v35.324l-243.43-64.949c2.2148-50.227 16.176-99.23 40.762-143.08zm165.17 396.32-0.35547-159.62 51.77 13.82v-0.003907c5.625 1.5039 11.633 0.30469 16.254-3.2461 4.6211-3.5469 7.332-9.043 7.332-14.867v-197.3l150 60v180.86l-175.73 70.273 13.949 34.836 187.5-75h0.003906c3.4766-1.3945 6.457-3.7969 8.5586-6.9023 2.0977-3.1055 3.2188-6.7695 3.2148-10.516v-206.25c0.003906-3.7461-1.1172-7.4102-3.2148-10.516-2.1016-3.1055-5.082-5.5078-8.5586-6.9023l-175.73-70.277v-50.625l16.406-8.1953 84.375 67.5v0.003906c3.3398 2.625 7.4727 4.0391 11.719 4.0117h112.5v324l-266.77 88.895c-7.707 2.5781-16.18 1.2891-22.766-3.4648-6.5898-4.7578-10.484-12.395-10.461-20.516zm160.99 492.34h-104.74v-112.5h104.74l37.5 37.5h-48.488v37.5h48.488zm71.773-18.75 24.242-24.242h0.003906c3.5117-3.5195 5.4883-8.2852 5.4883-13.258s-1.9766-9.7383-5.4883-13.258l-24.246-24.242h171.98l-24.242 24.242h-0.003906c-3.5117 3.5195-5.4883 8.2852-5.4883 13.258s1.9766 9.7383 5.4883 13.258l24.246 24.242zm348.49 18.75h-104.74l-37.5-37.5h48.488v-37.5h-48.488l37.5-37.5h104.74zm-112.5-150c-4.9727 0-9.7422 1.9766-13.258 5.4922l-13.254 13.258h-246.98l-13.258-13.258h0.003906c-3.5156-3.5156-8.2852-5.4922-13.258-5.4922h-81.395c7.9258-18.012 11.766-37.555 11.25-57.227-3.2227-33.457-8.4805-66.688-15.75-99.504-9.2617-43.492-16.195-87.449-20.773-131.68l256.67-85.574 255.71 85.238c-4.375 44.727-11.262 89.172-20.625 133.12-7.2578 32.457-12.457 65.344-15.562 98.457-0.14063 19.715 4.0117 39.223 12.172 57.168zm168.75-342.3c0.007812 8.1172-3.8906 15.742-10.477 20.492-6.582 4.75-15.047 6.0391-22.75 3.4727l-266.77-88.914v-324h112.5c4.2578 0.003906 8.3906-1.4453 11.719-4.1055l84.375-67.5 16.406 8.1914v50.719l-175.73 70.273v0.003906c-3.4766 1.3945-6.457 3.7969-8.5586 6.9023-2.0977 3.1055-3.2188 6.7695-3.2148 10.516v206.25c-0.003906 3.7461 1.1172 7.4102 3.2148 10.516 2.1016 3.1055 5.082 5.5078 8.5586 6.9023l187.5 75 13.949-34.836-175.72-70.277v-180.86l150-60v197.3c0 4.9727 1.9766 9.7422 5.4922 13.258 3.5156 3.5156 8.2852 5.4922 13.258 5.4922 1.6328 0 3.2617-0.21094 4.8359-0.63672l50.008-13.352zm205.93-253.27-243.43 64.949v-35.324c15.715 5.8203 33.219 4.2148 47.613-4.3594 14.398-8.5781 24.141-23.207 26.504-39.797l128.55-128.55c24.594 43.848 38.555 92.855 40.762 143.08z"/>
  <path d="m705.26 739.39 115.18 28.801 9.1133-36.375-115.18-28.801c-75.102-18.711-153.65-18.711-228.75 0l-115.18 28.801 9.1133 36.375 115.18-28.801c69.121-17.191 141.4-17.191 210.52 0z"/>
  <path d="m485.62 796.76-96.43 24.113 9.1133 36.375 96.43-24.113c69.121-17.191 141.4-17.191 210.52 0l96.43 24.113 9.1133-36.375-96.43-24.113c-75.102-18.711-153.65-18.711-228.75 0z"/>
 </g>
</svg>
