<?xml version="1.0" encoding="UTF-8"?>
<svg width="1200pt" height="1200pt" version="1.1" viewBox="0 0 1200 1200" xmlns="http://www.w3.org/2000/svg">
 <g fill="#c362dd">
  <path d="m395.6 920.45c-0.015625 4.7578 1.8594 9.3281 5.2109 12.703 3.3555 3.375 7.9141 5.2773 12.672 5.2891 4.7578 0.011719 9.3242-1.8711 12.695-5.2266 3.3711-3.3594 5.2695-7.9219 5.2734-12.68 0.003906-4.7578-1.8828-9.3203-5.2422-12.688-3.3633-3.3672-7.9258-5.2578-12.684-5.2578-4.7461-0.003906-9.2969 1.875-12.656 5.2227-3.3594 3.3477-5.2539 7.8906-5.2695 12.637z"/>
  <path d="m183.93 641.58c-15.055-22.031-24.34-47.488-27.012-74.039-17.113 8.1914-36.816 9.0977-54.609 2.5117-13.172 30.266-20.336 62.805-21.094 95.801 36.152 8.3984 74.148-0.57812 102.71-24.273z"/>
  <path d="m64.797 789.27c4.7344-0.015626 9.2656-1.9102 12.602-5.2695 3.3359-3.3555 5.2031-7.8984 5.1914-12.629-0.011719-4.7344-1.9023-9.2695-5.2539-12.609-3.3516-3.3398-7.8945-5.2109-12.625-5.207-4.7344 0.007812-9.2695 1.8906-12.613 5.2383s-5.2227 7.8867-5.2227 12.621c0.015625 4.7422 1.9102 9.2852 5.2695 12.633 3.3594 3.3477 7.9102 5.2266 12.652 5.2227z"/>
  <path d="m91.145 801.91c-4.7344 0.019532-9.2656 1.9141-12.602 5.2695-3.3398 3.3555-5.207 7.9023-5.1953 12.633 0.011719 4.7344 1.9023 9.2695 5.2539 12.609 3.3516 3.3398 7.8945 5.2148 12.625 5.207 4.7344-0.003906 9.2734-1.8867 12.617-5.2383 3.3438-3.3477 5.2227-7.8867 5.2227-12.621-0.015625-4.7422-1.9102-9.2852-5.2695-12.633-3.3594-3.3477-7.9102-5.2266-12.652-5.2266z"/>
  <path d="m219.47 938.25c4.7305-0.019531 9.2617-1.9141 12.598-5.2695 3.3359-3.3555 5.2031-7.9023 5.1914-12.633-0.011718-4.7305-1.9023-9.2656-5.2539-12.605-3.3516-3.3398-7.8945-5.2109-12.625-5.207-4.7344 0.007813-9.2695 1.8906-12.613 5.2383-3.3438 3.3477-5.2227 7.8867-5.2227 12.621 0.015625 4.7422 1.9102 9.2852 5.2695 12.633 3.3633 3.3477 7.9141 5.2266 12.656 5.2227z"/>
  <path d="m369.6 971.96c0 28.859-23.484 52.254-52.453 52.254s-52.453-23.395-52.453-52.254 23.484-52.254 52.453-52.254 52.453 23.395 52.453 52.254"/>
  <path d="m152.08 895.72c-0.015625 4.7578 1.8594 9.3281 5.2148 12.703 3.3516 3.375 7.9102 5.2773 12.668 5.2891 4.7578 0.011718 9.3242-1.8711 12.695-5.2305 3.3711-3.3555 5.2695-7.918 5.2734-12.676 0.003906-4.7578-1.8828-9.3242-5.2422-12.688-3.3633-3.3672-7.9258-5.2578-12.684-5.2578-4.7461-0.003906-9.2969 1.875-12.656 5.2227-3.3594 3.3477-5.2539 7.8945-5.2695 12.637z"/>
  <path d="m299.01 710.67c-18.512-2.0625-36.531-7.3125-53.254-15.516-3.4727 16.02-9.8672 31.262-18.863 44.961-27.441 41.289-70.992 53.105-107.7 54.59 21.703 32.934 51.289 59.926 86.07 78.531 110.32-49.109 99.008-138.68 93.746-162.57z"/>
  <path d="m156.21 546.53c1.1133-27.98 11.844-57.656 29.984-83.98-31.844 23.961-57.785 54.883-75.844 90.406 15.465 4.9805 32.359 2.6094 45.859-6.4258z"/>
  <path d="m505.82 525.92c-14.609-20.383-32.082-38.551-51.883-53.941 9.2969 15.844 16.047 33.051 19.992 50.988 10.711-0.30469 21.418 0.68359 31.891 2.9531z"/>
  <path d="m509.16 802.38c10.387-14.484 19.09-30.105 25.949-46.555 0.11328-0.27344 0.21875-0.54688 0.33594-0.81641 7.7227-18.707 12.992-38.332 15.68-58.391-20.348-52.191-67.719-74.242-86.352-81.094-8.0508 18.578-19.562 35.453-33.926 49.727 41.77 34.785 69.578 83.477 78.312 137.13z"/>
  <path d="m475.73 578.3c-1.0898 6.6055-2.5977 13.133-4.5117 19.547 17.676 6.3672 55.793 23.785 81.879 62.301-0.98047-36.848-11.906-73.949-30.371-107.45-14.344-9.5938-34.281-11.078-45.867-11.016l-0.003907-0.003906c1.1914 12.207 0.8125 24.516-1.125 36.621z"/>
  <path d="m381.85 766.05c-4.793-20.855-12.516-40.93-22.941-59.617-3.6914 0.96484-7.4297 1.8125-11.223 2.5117-9.707 1.7891-19.555 2.7148-29.426 2.7656 3.4766 20.152 3.1523 40.773-0.95703 60.805-11.926 57.16-52.449 91.195-90.207 110.98 18.348 7.5117 37.578 12.645 57.227 15.277 24.465 3.2656 49.285 2.7617 73.594-1.5 26.895-38.148 34.988-82.266 23.934-131.23z"/>
  <path d="m81.734 685.12c0.40234 5.7695 1.0039 11.516 1.875 17.223 3.9336 25.805 12.227 50.75 24.531 73.77 99.281 1.4062 117.32-70.191 120.45-90.758-5.0859-3.3203-9.9805-6.9297-14.656-10.805-6.6523-5.543-12.852-11.609-18.531-18.141-24.516 20.062-55.16 31.133-86.84 31.363-9.0039-0.019532-17.988-0.91016-26.824-2.6523z"/>
  <path d="m317 502c27.16-0.09375 53.172-10.969 72.324-30.23 19.148-19.262 29.867-45.336 29.805-72.496-0.0625-27.164-10.906-53.188-30.145-72.359-19.242-19.172-45.305-29.922-72.465-29.891-27.16 0.03125-53.199 10.844-72.395 30.059-19.195 19.219-29.977 45.27-29.977 72.43 0.078125 27.219 10.953 53.297 30.234 72.512s45.398 29.996 72.617 29.977zm0-177.93c19.996 0.058593 39.152 8.0508 53.258 22.223s22.008 33.367 21.973 53.363c-0.039063 19.996-8.0117 39.16-22.172 53.277-14.16 14.121-33.348 22.043-53.344 22.023-19.996-0.019532-39.168-7.9766-53.301-22.121-14.133-14.148-22.07-33.324-22.07-53.32 0.050782-20.031 8.043-39.223 22.227-53.367 14.184-14.145 33.398-22.082 53.43-22.078z"/>
  <path d="m126.61 879.51c4.7344-0.015625 9.2656-1.9102 12.602-5.2656 3.3359-3.3594 5.2031-7.9023 5.1914-12.633-0.011719-4.7344-1.9023-9.2656-5.2539-12.605-3.3516-3.3398-7.8945-5.2148-12.625-5.207-4.7344 0.003907-9.2695 1.8867-12.613 5.2383-3.3438 3.3477-5.2227 7.8867-5.2227 12.617 0.015625 4.7422 1.9102 9.2852 5.2695 12.633 3.3594 3.3477 7.9102 5.2266 12.652 5.2227z"/>
  <path d="m524.34 819.24c-0.019532 4.7578 1.8555 9.3281 5.2109 12.703s7.9141 5.2773 12.672 5.2891c4.7578 0.011719 9.3242-1.8711 12.695-5.2266 3.3672-3.3594 5.2656-7.9219 5.2695-12.68 0.007812-4.7578-1.8789-9.3203-5.2422-12.688-3.3633-3.3672-7.9258-5.2578-12.684-5.2578-4.7422-0.003906-9.293 1.875-12.656 5.2227-3.3594 3.3477-5.2539 7.8945-5.2656 12.637z"/>
  <path d="m569.1 751.67c-3.4648 0-6.8555 1.0078-9.7617 2.8906-2.9062 1.8867-5.207 4.5742-6.6172 7.7383-0.11328 0.27734-0.22266 0.55469-0.33594 0.83203h-0.003907c-0.79297 2.0391-1.2031 4.207-1.207 6.3945-0.019531 4.7578 1.8555 9.3281 5.2109 12.703 3.3516 3.375 7.9102 5.2773 12.668 5.2891 4.7578 0.011719 9.3242-1.8672 12.695-5.2227 3.3711-3.3594 5.2695-7.9219 5.2734-12.68 0.007812-4.7578-1.8789-9.3203-5.2422-12.688-3.3594-3.3672-7.9219-5.2578-12.68-5.2578z"/>
  <path d="m524.02 861.77c0 9.8594-8.0234 17.855-17.926 17.855-9.8984 0-17.922-7.9961-17.922-17.855 0-9.8633 8.0234-17.859 17.922-17.859 9.9023 0 17.926 7.9961 17.926 17.859"/>
  <path d="m492.72 822.82c-6.4961-82.711-58.996-131.19-76.188-144.93-12 9.3906-25.285 17.008-39.453 22.617 10.301 19.145 18.004 39.578 22.906 60.762 10.727 46.875 5.1172 91.328-16.156 129.97h-0.003906c41.969-12.207 79.684-35.902 108.89-68.414z"/>
  <path d="m444.88 895.7c-0.015625 4.7578 1.8594 9.3281 5.2109 12.703 3.3555 3.375 7.9141 5.2773 12.672 5.2891 4.7578 0.011719 9.3242-1.8711 12.695-5.2305 3.3711-3.3555 5.2656-7.918 5.2734-12.676 0.003906-4.7578-1.8828-9.3242-5.2461-12.688-3.3633-3.3672-7.9258-5.2578-12.684-5.2578-4.7422-0.003906-9.293 1.875-12.652 5.2227-3.3633 3.3477-5.2578 7.8945-5.2695 12.637z"/>
  <path d="m647.83 563.87c0.40234 5.7695 1.0039 11.516 1.875 17.227 3.9336 25.805 12.23 50.75 24.535 73.77 99.285 1.4492 117.32-70.188 120.45-90.758h-0.003906c-5.0859-3.3203-9.9805-6.9297-14.66-10.805-6.6523-5.543-12.848-11.609-18.527-18.145-24.516 20.062-55.156 31.133-86.832 31.363-9.0117-0.019532-17.996-0.90625-26.836-2.6523z"/>
  <path d="m925 585.18c-3.6875 0.96094-7.4258 1.8086-11.219 2.5117l0.003906-0.003906c-9.7109 1.7891-19.555 2.7148-29.426 2.7695 3.4766 20.148 3.1523 40.773-0.96094 60.805-11.922 57.156-52.449 91.195-90.207 110.98 18.348 7.5078 37.578 12.641 57.227 15.273 24.484 3.2695 49.324 2.7617 73.656-1.5117 56.234-79.918 13.895-167.78 0.92578-190.83z"/>
  <path d="m722.31 425.29c1.1094-27.98 11.844-57.656 29.984-83.984h0.003906c-31.848 23.957-57.793 54.887-75.848 90.414 15.461 5.0195 32.375 2.6484 45.859-6.4297z"/>
  <path d="m750.03 520.34c-15.055-22.035-24.34-47.492-27.012-74.043-17.113 8.1953-36.816 9.1016-54.609 2.5117-13.172 30.266-20.336 62.805-21.094 95.805 36.148 8.4023 74.148-0.57812 102.71-24.273z"/>
  <path d="m1075.3 681.13c10.395-14.5 19.105-30.137 25.969-46.605 0.10156-0.24609 0.19531-0.49609 0.30078-0.73828 7.7266-18.711 13.004-38.348 15.691-58.414-20.348-52.191-67.719-74.242-86.348-81.094-8.0508 18.578-19.566 35.449-33.926 49.723 41.766 34.785 69.574 83.477 78.312 137.13z"/>
  <path d="m1118.5 641.83c-0.80859 2.0547-1.2266 4.2422-1.2305 6.4492-0.015626 5.9609 2.9336 11.539 7.8672 14.879 4.9336 3.3438 11.207 4.0156 16.734 1.7891 5.5273-2.2266 9.5859-7.0547 10.828-12.887 1.2422-5.8281-0.49609-11.891-4.6406-16.176-4.1406-4.2852-10.141-6.2305-16.012-5.1875-5.8672 1.043-10.832 4.9336-13.242 10.383-0.10156 0.25-0.20312 0.5-0.30469 0.75z"/>
  <path d="m1041.8 457.06c-1.0898 6.6055-2.5938 13.133-4.5117 19.547 17.676 6.3633 55.793 23.781 81.879 62.293-0.98047-36.848-11.91-73.949-30.379-107.45-14.344-9.5938-34.277-11.074-45.863-11.016h0.003906c1.1914 12.207 0.8125 24.516-1.1289 36.625z"/>
  <path d="m1071.9 404.67c-14.605-20.383-32.078-38.547-51.879-53.934 9.2969 15.84 16.047 33.047 19.992 50.984 10.711-0.30859 21.418 0.68359 31.887 2.9492z"/>
  <path d="m883.1 380.76c27.16-0.097656 53.172-10.969 72.32-30.23 19.148-19.262 29.871-45.34 29.805-72.5-0.0625-27.16-10.906-53.184-30.145-72.355s-45.301-29.922-72.461-29.891-53.199 10.844-72.391 30.062c-19.195 19.215-29.977 45.266-29.977 72.426 0.078125 27.219 10.949 53.297 30.23 72.508 19.281 19.215 45.398 29.996 72.617 29.98zm0-177.93v-0.003906c19.996 0.058593 39.152 8.0508 53.258 22.223s22.008 33.367 21.973 53.363c-0.039062 19.996-8.0117 39.16-22.172 53.277-14.16 14.121-33.344 22.043-53.34 22.023-19.996-0.019532-39.168-7.9727-53.301-22.121-14.133-14.145-22.074-33.324-22.074-53.32 0.050782-20.031 8.043-39.223 22.227-53.367 14.184-14.145 33.402-22.082 53.434-22.078z"/>
  <path d="m865.11 589.43c-18.512-2.0625-36.527-7.3125-53.25-15.516-3.4727 16.02-9.8672 31.262-18.863 44.961-27.453 41.289-70.996 53.102-107.7 54.586 21.703 32.934 51.285 59.926 86.066 78.531 110.32-49.098 99.012-138.68 93.746-162.56z"/>
  <path d="m692.71 758.27c4.7344-0.019531 9.2656-1.9141 12.602-5.2734 3.3359-3.3555 5.1992-7.8984 5.1875-12.629-0.011718-4.7344-1.8984-9.2656-5.2539-12.605-3.3516-3.3398-7.8906-5.2148-12.625-5.207-4.7305 0.003907-9.2656 1.8906-12.609 5.2383-3.3477 3.3477-5.2227 7.8867-5.2227 12.617 0.011719 4.7461 1.9062 9.2891 5.2695 12.637 3.3594 3.3477 7.9102 5.2266 12.652 5.2227z"/>
  <path d="m1108.4 680.13c-4.7305 0.019532-9.2617 1.9141-12.598 5.2695-3.3359 3.3555-5.2031 7.9023-5.1914 12.633 0.011719 4.7305 1.9023 9.2656 5.2539 12.605 3.3516 3.3398 7.8945 5.2109 12.625 5.207 4.7344-0.007812 9.2695-1.8906 12.613-5.2383s5.2227-7.8867 5.2227-12.621c-0.015625-4.7422-1.9102-9.2852-5.2695-12.633-3.3633-3.3477-7.9141-5.2266-12.656-5.2227z"/>
  <path d="m718.18 774.47c-0.015626 4.7578 1.8594 9.3281 5.2109 12.703 3.3555 3.375 7.9141 5.2773 12.672 5.2891 4.7578 0.011718 9.3242-1.8672 12.695-5.2227 3.3711-3.3594 5.2656-7.9219 5.2734-12.68s-1.8789-9.3203-5.2422-12.688c-3.3633-3.3672-7.9258-5.2578-12.684-5.2578-4.7422-0.003907-9.293 1.875-12.652 5.2227-3.3633 3.3477-5.2578 7.8906-5.2734 12.633z"/>
  <path d="m648.82 650.16c0.019531-4.7578-1.8555-9.3281-5.2109-12.703-3.3516-3.375-7.9102-5.2773-12.668-5.2891-4.7578-0.011718-9.3242 1.8672-12.695 5.2266-3.3711 3.3555-5.2695 7.918-5.2734 12.676-0.007812 4.7578 1.8789 9.3203 5.2422 12.688 3.3594 3.3672 7.9219 5.2578 12.68 5.2578 4.7461 0.003906 9.2969-1.8711 12.656-5.2188 3.3594-3.3477 5.2578-7.8945 5.2695-12.637z"/>
  <path d="m657.24 680.66c-4.7305 0.019532-9.2617 1.9141-12.598 5.2695-3.3359 3.3555-5.2031 7.8984-5.1914 12.633 0.011719 4.7305 1.8984 9.2656 5.2539 12.605 3.3516 3.3398 7.8906 5.2109 12.625 5.207 4.7305-0.007812 9.2695-1.8906 12.613-5.2383s5.2227-7.8867 5.2227-12.617c-0.015625-4.7461-1.9102-9.2891-5.2695-12.637-3.3633-3.3477-7.9102-5.2227-12.656-5.2227z"/>
  <path d="m785.57 817c4.7305-0.019531 9.2617-1.9141 12.598-5.2695 3.332-3.3594 5.1992-7.9023 5.1875-12.633-0.011719-4.7344-1.9023-9.2656-5.2539-12.605-3.3555-3.3398-7.8945-5.2109-12.625-5.207-4.7344 0.007813-9.2695 1.8906-12.613 5.2383-3.3438 3.3516-5.2227 7.8867-5.2227 12.621 0.015625 4.7422 1.9102 9.2891 5.2695 12.637 3.3633 3.3477 7.9141 5.2227 12.66 5.2188z"/>
  <path d="m1058.8 701.57c-6.4961-82.711-59-131.19-76.188-144.93-11.996 9.3945-25.281 17.008-39.449 22.617 10.301 19.148 18.004 39.582 22.902 60.762 10.727 46.875 5.1133 91.32-16.156 129.96 41.969-12.203 79.684-35.898 108.89-68.41z"/>
  <path d="m1072.2 758.38c4.7344-0.019531 9.2656-1.9141 12.602-5.2734 3.3359-3.3555 5.2031-7.8984 5.1914-12.633-0.015625-4.7344-1.9023-9.2656-5.2578-12.605-3.3516-3.3398-7.8945-5.2148-12.629-5.207-4.7305 0.003906-9.2695 1.8906-12.613 5.2383-3.3438 3.3516-5.2227 7.8906-5.2188 12.621 0.011719 4.7461 1.9102 9.2891 5.2695 12.637 3.3594 3.3477 7.9141 5.2266 12.656 5.2227z"/>
  <path d="m1011 774.45c-0.019531 4.7578 1.8555 9.3281 5.2109 12.703 3.3516 3.375 7.9102 5.2773 12.668 5.2891 4.7578 0.011719 9.3281-1.8711 12.695-5.2266 3.3711-3.3594 5.2695-7.9219 5.2734-12.68 0.007813-4.7578-1.8789-9.3203-5.2422-12.688-3.3633-3.3672-7.9258-5.2578-12.684-5.2578-4.7461-0.003906-9.2969 1.875-12.656 5.2227s-5.2539 7.8945-5.2656 12.637z"/>
  <path d="m961.7 799.2c-0.015625 4.7578 1.8555 9.3281 5.2109 12.703 3.3555 3.375 7.9141 5.2773 12.672 5.2891 4.7578 0.011719 9.3242-1.8672 12.695-5.2266 3.3672-3.3594 5.2656-7.918 5.2734-12.676 0.003907-4.7578-1.8828-9.3242-5.2422-12.691-3.3633-3.3633-7.9258-5.2578-12.684-5.2578-4.7461-0.003906-9.2969 1.875-12.656 5.2227-3.3594 3.3516-5.2578 7.8945-5.2695 12.637z"/>
  <path d="m935.7 850.71c0 28.859-23.484 52.254-52.453 52.254s-52.453-23.395-52.453-52.254 23.484-52.254 52.453-52.254 52.453 23.395 52.453 52.254"/>
 </g>
</svg>
