<?xml version="1.0" encoding="UTF-8"?>
<svg width="1200pt" height="1200pt" version="1.1" viewBox="0 0 1200 1200" xmlns="http://www.w3.org/2000/svg">
 <defs>
  <clipPath id="a">
   <path d="m275 222.14h651v755.71h-651z"/>
  </clipPath>
 </defs>
 <path d="m598.05 656.16c-3.1172 12.73-15.965 20.52-28.695 17.402s-20.523-15.965-17.402-28.695c3.1172-12.727 15.965-20.52 28.691-17.402 12.73 3.1172 20.523 15.965 17.406 28.695" fill="#c362dd" fill-rule="evenodd"/>
 <g clip-path="url(#a)">
  <path d="m754.34 633.71 14.191 3.5469c3.5469-49.672-10.645-102.89-42.574-145.46-53.219-70.961-141.92-102.89-223.52-85.152l3.5469 14.191c131.27-28.383 255.45 78.055 248.36 212.88zm-170.3-14.191c14.191 3.5469 24.836 21.289 21.289 39.027s-21.289 24.836-39.027 21.289c-14.191-3.5469-24.836-21.289-21.289-35.48 3.5469-17.738 21.289-28.383 39.027-24.836zm184.49 39.027-14.191-3.5469c-7.0977 53.219-39.027 102.89-81.602 134.82l14.191 70.961-159.66-46.125-24.836 35.48-227.07 24.836 42.574-180.95v-39.027l159.66-28.383-145.46-31.93c3.5469-31.93 21.289-70.961 35.48-95.793 3.5469-3.5469 10.645 7.0977 14.191 3.5469 24.836-35.48 63.863-63.863 106.44-78.055l-7.0977-14.191c-10.645 3.5469-24.836 7.0977-39.027 14.191l-163.21-202.23c46.125 7.0977 99.344 17.738 134.82 14.191l39.027 88.699-14.191-92.246c92.246-10.645 191.59 10.645 269.64 49.672l-17.738 53.219 39.027-42.574c46.125 24.836 88.699 60.316 120.63 106.44 39.027 53.219 63.863 117.08 70.961 180.95l-35.48 3.5469 39.027 10.645c3.5469 42.574 0 85.152-10.645 124.18l-49.672-14.191 42.574 35.48c-17.738 60.316-81.602 191.59-134.82 237.71 0-95.793-56.766-124.18-63.863-195.14 31.93-35.48 53.219-78.055 60.316-124.18z" fill="#c362dd" fill-rule="evenodd"/>
 </g>
</svg>
