<?xml version="1.0" encoding="UTF-8"?>
<svg width="1200pt" height="1200pt" version="1.1" viewBox="0 0 1200 1200" xmlns="http://www.w3.org/2000/svg">
 <path d="m240.52 793.39-106.05 106.05c-29.289 29.289-29.289 76.801 0 106.09l53.023 53.023c29.25 29.289 76.801 29.289 106.05 0l106.09-106.05-159.11-159.11zm0.5625-355.69h-0.89844c-13.613 0.11328-26.699 7.6875-33.188 20.699l-53.062 106.09c-7.1992 14.438-4.3867 31.875 7.0508 43.273l424.24 424.27c7.1641 7.125 16.648 10.914 26.289 10.988h0.71094c5.5508-0.074219 11.102-1.3867 16.312-3.9766l106.05-53.023c18.523-9.2617 26.023-31.801 16.762-50.324-6.3359-12.711-18.977-20.25-32.289-20.699h-0.89844c-5.7734-0.074219-11.625 1.1992-17.102 3.9375l-81.898 40.949-386.02-386.02s40.914-81.898 40.914-81.898c9.2617-18.523 1.7617-41.062-16.762-50.324-5.2109-2.5859-10.727-3.8633-16.199-3.9375zm211.57 249.64 397.73-397.76c14.664-14.625 38.398-14.625 53.062 0 14.625 14.625 14.625 38.398 0 53.023l-397.76 397.76 106.09 106.05 450.75-450.79c7.0508-7.0117 10.988-16.574 10.988-26.512v-212.14c0-20.699-16.762-37.5-37.5-37.5h-212.14c-9.9375 0-19.461 3.9766-26.512 10.988l-450.79 450.79z" fill="#c362dd" fill-rule="evenodd"/>
</svg>
