<?xml version="1.0" encoding="UTF-8"?>
<svg width="1200pt" height="1200pt" version="1.1" viewBox="0 0 1200 1200" xmlns="http://www.w3.org/2000/svg">
 <g fill="#c362dd">
  <path d="m888.67 516.1-10.562-21.121-47.23 23.617 10.562 21.121z"/>
  <path d="m888.68 563.33-10.562-21.121-47.23 23.617 10.562 21.121z"/>
  <path d="m517.34 812.55h-23.617v23.617h23.617z"/>
  <path d="m470.11 812.55h-23.617v23.617h23.617z"/>
  <path d="m422.88 812.55h-23.617v23.617h23.617z"/>
  <path d="m375.64 812.55h-23.617v23.617h23.617z"/>
  <path d="m942.43 316.61h-11.805v578.59c-0.019531 15.652-6.2461 30.66-17.316 41.727-11.066 11.066-26.074 17.293-41.727 17.312h-141.7c-3.1328 0-6.1367-1.2422-8.3477-3.457-2.2148-2.2148-3.4609-5.2188-3.4609-8.3516v-11.809h-69.195l-81.074 23.168c-1.0508 0.29688-2.1406 0.44922-3.2344 0.44922h-236.16c-15.652-0.019532-30.66-6.2461-41.727-17.312-11.07-11.066-17.297-26.074-17.312-41.727v-34.48c0.046875-23.223 7.6758-45.793 21.73-64.281 14.051-18.488 33.758-31.879 56.117-38.141l140.35-38.965 112.43-112.41v-290.31h-11.809c-3.1328 0-6.1367-1.2461-8.3516-3.4609-2.2148-2.2109-3.457-5.2148-3.457-8.3477v-47.23c0-3.1328 1.2422-6.1367 3.457-8.3516s5.2188-3.457 8.3516-3.457h354.24c6.5234 0 11.809 5.2852 11.809 11.809v47.23c0 3.1328-1.2422 6.1367-3.457 8.3477-2.2148 2.2148-5.2188 3.4609-8.3516 3.4609zm-94.465 47.23h-47.23v23.617h47.234c9.3789 0.046875 18.363 3.793 24.996 10.426 6.6328 6.6328 10.379 15.617 10.426 25 0 9.3945-3.7305 18.402-10.375 25.047-6.6445 6.6445-15.652 10.375-25.047 10.375h-47.23l-0.003906 170.59 106.27-48.305v-263.98h-25.789c1.3984 3.7812 2.1328 7.7773 2.1719 11.809 0 9.3945-3.7305 18.402-10.375 25.047-6.6445 6.6445-15.652 10.375-25.047 10.375zm-224.35 165.31h47.234v-23.613h-47.23zm0 76.977 113.65 90.922c2.8008 2.2422 4.4297 5.6367 4.4297 9.2227v23.617h35.422v-23.617c0.003906-4.6289 2.707-8.8281 6.9219-10.746l122.97-55.898v-33.062l-113.19 51.449c-1.5352 0.69141-3.2031 1.043-4.8906 1.0273-3.1289 0-6.1328-1.2461-8.3477-3.4609-2.2148-2.2148-3.4609-5.2148-3.4609-8.3477v-59.039h-35.426v35.426l0.003906-0.003906c-0.003906 4.4023-2.4531 8.4336-6.3555 10.469-3.9023 2.0312-8.6133 1.7227-12.219-0.79688l-99.508-69.645zm153.5 253.65v-35.422h-35.426v35.426zm129.89-135.59-59.039 25.293v63.066h59.039zm0 111.98h-70.848c-3.1328 0-6.1367-1.2461-8.3516-3.4609s-3.457-5.2188-3.457-8.3477v-82.656c0-4.7227 2.8125-8.9922 7.1562-10.852l75.5-32.355v-32.922l-106.27 48.309v145.9h106.27zm-165.31-35.426h35.422v-47.23h-35.426zm0-236.16h35.422v-47.234h-35.426zm0-70.848h35.422v-35.426h-35.426zm106.27-59.039v-0.003906c6.5195 0 11.805-5.2852 11.805-11.805 0.007812-3.1875-1.3047-6.2344-3.625-8.4219-2.1523-2.1914-5.1055-3.4141-8.1797-3.3867h-224.36v23.617zm-70.848-47.23-0.003906-23.621h-35.426v23.617zm-484.13 507.74c0 9.3945 3.7344 18.406 10.375 25.047 6.6445 6.6445 15.656 10.375 25.051 10.375h234.51l81.074-23.168v0.003907c1.0508-0.30078 2.1406-0.44922 3.2344-0.44922h82.656c6.5195 0 11.809 5.2852 11.809 11.809v11.809l129.89-0.003906c9.3945 0 18.406-3.7305 25.051-10.375 6.6406-6.6406 10.375-15.652 10.375-25.047v-11.809h-614.02zm283.39-106.27v70.848h59.039v-88.688l-93.484-72.715-30.699 30.699 60.918 50.773v0.003906c2.6836 2.2461 4.2344 5.5742 4.2266 9.0781zm-283.39 70.848h259.78v-65.309l-61.852-51.59-137.38 38.141c-17.242 4.8281-32.461 15.109-43.375 29.309-10.914 14.195-16.941 31.543-17.176 49.449zm265.78-178.23 95.715 74.449c2.875 2.2383 4.5586 5.6758 4.5586 9.3164v94.465h59.039v-147.84l-105.4-84.309zm64.848-199.62h70.848v70.848h-45.199l68.816 48.164v-142.63h-94.465zm0-94.465h94.465v-23.617h-94.465zm0-47.23h224.36c6.5195 0 11.805-5.2891 11.805-11.809 0-6.5234-5.2852-11.809-11.805-11.809h-224.36zm307.01-70.852h-330.62v23.617h330.62z"/>
 </g>
</svg>
