<?xml version="1.0" encoding="UTF-8"?>
<svg width="1200pt" height="1200pt" version="1.1" viewBox="0 0 1200 1200" xmlns="http://www.w3.org/2000/svg">
 <path d="m479.82 647.41h91.332v-48.188c-30.727-10.148-54.215-35.902-61.344-67.551-107.9-19.688-203.7-74-275.43-150.99 51.508 86.414 131.37 153.43 226.45 187.03 35.719 12.586 16.57 66.914-19.164 54.312-197.32-69.746-326-259.39-328.1-467.21-8.6602-36.793-13.238-75.16-13.238-114.59 0-37.941 57.684-37.941 57.684 0 0 208.71 147.94 393.38 357.44 433.93 32.484-73.164 136.59-73.176 169.09 0 209.5-40.551 357.44-225.2 357.44-433.93 0-37.941 57.684-37.941 57.684 0 0 39.43-4.5781 77.797-13.238 114.59-2.0977 207.82-130.78 397.46-328.1 467.21-35.73 12.602-54.879-41.727-19.164-54.312 95.074-33.605 174.94-100.62 226.45-187.03-71.73 76.988-167.53 131.3-275.43 150.99-7.1289 31.648-30.629 57.402-61.344 67.562v48.176h91.32c15.93 0 28.844 12.926 28.844 28.855v76.168c0 14.754-11.07 26.914-25.355 28.629l31.891 252.57c1.5859 9.9062-1.375 19.062-8.6016 26.008l-127.11 120.66c-11.027 10.516-28.504 10.629-39.656 0l-127.12-120.66c-7.0742-6.6758-10.277-16.398-8.5898-25.965l31.902-252.61c-14.301-1.7148-25.383-13.875-25.383-28.629v-76.168c0-15.93 12.926-28.855 28.844-28.855zm120.18-170.72c-19.348 0-34.738 15.391-34.738 34.738 0 19.348 15.391 34.738 34.738 34.738s34.738-15.391 34.738-34.738c0-19.234-15.465-34.738-34.738-34.738zm28.844 304.59v124.37l59.77 56.734-22.875-181.11zm-57.684 124.37v-124.37h-36.895l-22.875 181.11zm114.27 133.06-85.422-81.086-85.422 81.086 85.422 81.086zm5.8945-333.6h-182.64v18.48h182.64z" fill="#c362dd"/>
</svg>
